<?xml version="1.0" encoding="UTF-8" standalone="no"?>
<!-- Created with Inkscape (http://www.inkscape.org/) -->

<svg
   xmlns:dc="http://purl.org/dc/elements/1.1/"
   xmlns:cc="http://creativecommons.org/ns#"
   xmlns:rdf="http://www.w3.org/1999/02/22-rdf-syntax-ns#"
   xmlns:svg="http://www.w3.org/2000/svg"
   xmlns="http://www.w3.org/2000/svg"
   xmlns:xlink="http://www.w3.org/1999/xlink"
   xmlns:sodipodi="http://sodipodi.sourceforge.net/DTD/sodipodi-0.dtd"
   xmlns:inkscape="http://www.inkscape.org/namespaces/inkscape"
   width="100%"
   height="100%"
   viewBox="0 0 23.3551 10.420284"
   version="1.1"
   id="svg14694"
   inkscape:version="0.92.2 5c3e80d, 2017-08-06"
   sodipodi:docname="invenio-ils.svg">
  <defs
     id="defs14688" />
  <sodipodi:namedview
     id="base"
     pagecolor="#ffffff"
     bordercolor="#666666"
     borderopacity="1.0"
     inkscape:pageopacity="0.0"
     inkscape:pageshadow="2"
     inkscape:zoom="113.43261"
     inkscape:cx="11.67755"
     inkscape:cy="5.210142"
     inkscape:document-units="mm"
     inkscape:current-layer="g25604"
     showgrid="false"
     inkscape:pagecheckerboard="true"
     fit-margin-top="0"
     fit-margin-left="0"
     fit-margin-right="0"
     fit-margin-bottom="0"
     inkscape:window-width="3440"
     inkscape:window-height="1395"
     inkscape:window-x="0"
     inkscape:window-y="1"
     inkscape:window-maximized="1" />
  <metadata
     id="metadata14691">
    <rdf:RDF>
      <cc:Work
         rdf:about="">
        <dc:format>image/svg+xml</dc:format>
        <dc:type
           rdf:resource="http://purl.org/dc/dcmitype/StillImage" />
        <dc:title />
      </cc:Work>
    </rdf:RDF>
  </metadata>
  <g
     inkscape:label="Layer 1"
     inkscape:groupmode="layer"
     id="layer1"
     transform="translate(77.678958,-138.68634)">
    <a
       transform="matrix(0.26458333,0,0,0.26458333,-307.94989,78.396553)"
       style="display:inline"
       id="a9728"
       xlink:href="/products/ils/">
      <g
         transform="translate(1.7274613,2)"
         id="g25604">
        <g
           id="g20666"
           transform="matrix(0.43046721,0,0,0.43046721,548.44181,126.38329)">
          <g
             transform="translate(474.21725,226.44114)"
             id="g20614">
            <g
               id="g20612">
              <g
                 id="g20610">
                <path
                   style="fill:#ffffff"
                   id="path20608"
                   d="m 328.162,4.665 c -18.767,0 -34.032,15.268 -34.032,34.034 0,7.28 2.306,14.028 6.214,19.568 l -30.078,26.432 c -1.881,1.878 0.067,6.867 1.944,8.749 1.879,1.876 6.87,3.822 8.748,1.943 l 26.265,-29.894 c 5.779,4.525 13.047,7.233 20.939,7.233 18.768,0 34.034,-15.267 34.034,-34.032 0,-18.765 -15.266,-34.033 -34.034,-34.033 z m 0,56.722 c -12.51,0 -22.689,-10.177 -22.689,-22.688 0,-12.511 10.18,-22.69 22.689,-22.69 12.513,0 22.688,10.18 22.688,22.69 0,12.51 -10.175,22.688 -22.688,22.688 z"
                   inkscape:connector-curvature="0" />
              </g>
            </g>
          </g>
          <g
             transform="matrix(0.38742049,0,0,0.38742049,670.93796,251.12579)"
             id="g20620">
            <path
               style="fill:#ffffff"
               id="path20616"
               d="m 375.104,38.079 c 0.174,18.184 -8.123,32.126 -11.51,37.52 8.183,-5.347 19.898,-19.36 19.674,-37.661 0.174,-18.183 -11.431,-32.127 -19.631,-37.52 3.323,5.347 11.691,19.36 11.467,37.661 z"
               inkscape:connector-curvature="0" />
            <path
               style="fill:none;stroke:#ffffff"
               id="path20618"
               d="m 375.104,38.079 c 0.174,18.184 -8.123,32.126 -11.51,37.52 8.183,-5.347 19.898,-19.36 19.674,-37.661 0.174,-18.183 -11.431,-32.127 -19.631,-37.52 3.323,5.347 11.691,19.36 11.467,37.661 z"
               inkscape:connector-curvature="0" />
          </g>
        </g>
        <g
           aria-label="ILS"
           transform="scale(0.93553742,1.0689043)"
           style="font-style:normal;font-variant:normal;font-weight:600;font-stretch:normal;font-size:37.67456436px;line-height:1.25;font-family:Oswald;-inkscape-font-specification:'Oswald, Semi-Bold';font-variant-ligatures:normal;font-variant-caps:normal;font-variant-numeric:normal;font-feature-settings:normal;text-align:start;letter-spacing:0px;word-spacing:0px;writing-mode:lr-tb;text-anchor:start;fill:#7be9ff;fill-opacity:1;stroke:none;stroke-width:7.62822819;stroke-miterlimit:4;stroke-dasharray:none"
           id="text10216">
          <path
             id="path36621"
             style="font-style:normal;font-variant:normal;font-weight:600;font-stretch:normal;font-size:37.67456436px;font-family:Oswald;-inkscape-font-specification:'Oswald, Semi-Bold';font-variant-ligatures:normal;font-variant-caps:normal;font-variant-numeric:normal;font-feature-settings:normal;text-align:start;writing-mode:lr-tb;text-anchor:start;fill:#7be9ff;fill-opacity:1;stroke-width:7.62822819"
             d="m 1014.9546,242.90421 q -2.8256,0 -4.7094,-1.01721 -1.8837,-1.05489 -2.8632,-3.12699 -0.9419,-2.10978 -1.0926,-5.34979 l 5.3498,-0.90419 q 0.075,1.88373 0.3767,3.16467 0.3391,1.24326 0.9796,1.88372 0.6781,0.6028 1.6577,0.6028 1.2056,0 1.62,-0.75349 0.4521,-0.7535 0.4521,-1.73303 0,-1.92141 -0.9419,-3.20234 -0.9042,-1.31861 -2.4112,-2.63722 l -3.1646,-2.75024 q -1.6954,-1.43164 -2.788,-3.24002 -1.0548,-1.80838 -1.0548,-4.4456 0,-3.76745 2.1851,-5.7642 2.2228,-2.03443 6.0656,-2.03443 2.2981,0 3.7674,0.75349 1.4694,0.75349 2.2605,2.03443 0.8289,1.24326 1.1303,2.75024 0.339,1.46931 0.4144,2.93862 l -5.3121,0.79116 q -0.075,-1.39396 -0.2638,-2.44884 -0.1507,-1.05489 -0.6781,-1.65769 -0.4898,-0.60279 -1.507,-0.60279 -1.0925,0 -1.62,0.82884 -0.5274,0.79117 -0.5274,1.77071 0,1.62 0.7158,2.67489 0.7535,1.01721 2.0344,2.14745 l 3.0893,2.71257 q 1.9214,1.65768 3.2777,3.80513 1.394,2.10978 1.394,5.23676 0,2.14745 -0.9796,3.88048 -0.9795,1.73303 -2.7502,2.71257 -1.733,0.97954 -4.1065,0.97954 z m -24.0264,-0.41442 v -30.5164 h 6.2163 v 26.29685 h 7.1582 v 4.21955 z m -10.81496,0 v -30.5164 h 6.17863 v 30.5164 z"
             inkscape:connector-curvature="0" />
        </g>
      </g>
    </a>
  </g>
</svg>
